<?xml version="1.0" encoding="utf-8"?>
<!-- Generator: Adobe Illustrator 28.3.0, SVG Export Plug-In . SVG Version: 6.00 Build 0)  -->
<svg version="1.1" id="Ebene_1" xmlns="http://www.w3.org/2000/svg" xmlns:xlink="http://www.w3.org/1999/xlink" x="0px" y="0px"
	 viewBox="0 0 625.3 625.3" style="enable-background:new 0 0 625.3 625.3;" xml:space="preserve">
<style type="text/css">
	.st0{fill:#C3C4C5;}
</style>
<path class="st0" d="M560.5,0H64.9C29.1,0,0,29.1,0,64.9v495.5c0,35.9,29.1,64.9,64.9,64.9h495.5c35.9,0,64.9-29.1,64.9-64.9V64.9
	C625.4,29.1,596.3,0,560.5,0z M470.8,452.6c-6.2,8.8-14.7,15.7-25.3,20.5c-34.8,15.3-74.6,23.1-118.2,23.1
	c-51.6,0-94.4-15.2-127.4-45.2c-32.5-29.5-55.1-83.8-55.1-132.1v-13.2c0-47.9,22.7-101.9,55.1-131.4c33-30,75.8-45.2,127.4-45.2
	c43.9,0,79.8,13.1,112.2,27.4c10.7,4.9,19.2,11.9,25.1,20.9c6,9.1,9.1,19.1,9.1,29.6c0,14.5-6,27.6-17.4,38c-11,10-24.7,15-40.6,15
	c-5.5,0-15.8-0.3-26.1-5.7c-11.1-5.8-23.3-12.7-28.7-14.2c-11-2.9-22.4-4.4-33.7-4.4c-19.1,0-33.7,4.5-43.4,13.3
	c-8.7,7.9-19.2,32.9-19.2,50.9v24.7c0,18.4,10.5,43.4,19.1,51.1c9.7,8.7,24.3,13,43.6,13c11.5,0,25.2-1.4,42-7.1
	c6.8-2.3,29.4-13.1,54.1-12.9c14.6,0.1,27.7,4.8,38.9,14.2c11.9,10.1,18.3,23.8,18.3,39.5C480.6,433.2,477.3,443.4,470.8,452.6z"/>
</svg>
